<svg width="178" height="88" viewBox="0 0 178 88" fill="none" xmlns="http://www.w3.org/2000/svg">
<path d="M17.1491 2C11.2778 2 -2.41996 17.2511 10.0328 17.7492C13.3415 17.8816 4.07355 24.295 2.68321 26.1488C-1.75219 32.0626 16.7787 26.949 18.8991 26.0321C23.1847 24.1789 18.8587 26.1488 17.6158 26.1488C16.3978 26.1488 21.6603 24.0094 21.1156 25.0988C20.1155 27.099 16.6485 28.6553 15.0493 30.3486C13.7892 31.6828 20.2132 34.7885 20.299 32.2151C20.5538 24.5716 20.299 16.8807 20.299 9.23297C20.299 5.21017 19.7087 3.54399 20.7656 8.76632C22.3197 16.4454 26.5987 24.5471 26.5987 32.4485" stroke="#131520" stroke-width="3" stroke-linecap="round"/>
<path d="M42 35.814C48.1213 32.5734 52.259 27.5334 54.0744 20.9981C54.5199 19.3944 57.7825 3.0502 55.066 2.27407C52.5567 1.55711 46.4442 2.19084 45.2665 4.8406C43.932 7.84323 46.406 7.62218 47.2497 9.09872C51.0359 15.7246 56.0158 12.4143 62.3573 13.8235C64.8886 14.386 67.5569 23.9655 67.1404 25.8395C66.5105 28.6743 63.3443 30.3356 61.4823 32.1975C56.4333 37.2466 51.3146 41.8182 43.6333 35.2891C42.518 34.3411 42.8716 30.9869 44.6249 33.7141C46.0272 35.8956 48.0666 36.2808 50.2829 37.389C53.2373 38.8662 54.9177 38.9639 58.2742 38.9639C64.7296 38.9639 65.6011 31.9435 68.7153 27.9394C70.5708 25.5539 69.4428 16.1157 73.7317 24.2646C74.8038 26.3016 76.6482 28.2852 76.6482 30.5643C76.6482 31.9465 76.0017 35.5309 76.8816 36.6307C79.621 40.0549 86.9744 38.0413 88.431 34.7641C90.6476 29.7767 88.4292 23.5041 81.898 26.5978C73.115 30.7582 82.5964 36.864 87.9643 36.864C90.7284 36.864 95.4272 37.8003 97.6472 35.814C98.8025 34.7803 101.184 31.418 99.5138 29.7477C96.5367 26.7706 86.5732 29.2634 92.3974 34.7641C97.4454 39.5316 106.047 40.1797 106.047 31.8476C106.047 26.4845 113.396 25.1173 113.396 30.5643C113.396 32.9396 115.396 31.6142 118.063 31.6142C119.902 31.6142 120.243 33.892 121.329 35.2891C124.977 39.9794 127.012 32.3463 127.454 29.5144C128.146 25.0865 125.282 21.927 123.546 18.1399C123.496 18.0318 122.253 13.662 121.854 15.4567C121.026 19.1858 126.27 27.9741 128.096 30.9726C129.618 33.4742 131.693 35.6112 134.862 34.7058C136.222 34.3172 136.236 28.4644 133.87 28.4644C128.625 28.4644 139.89 27.7142 142.037 25.8979C145.46 23.001 138.677 22.1647 137.02 22.1647C133.724 22.1647 136.495 27.0578 136.495 28.9894C136.495 33.2453 147.266 32.8933 147.986 28.931C148.215 27.6743 148.547 20.4463 149.678 20.1232C152.214 19.3985 151.194 25.4318 151.194 26.8895C151.194 29.5049 155.425 28.4644 157.261 28.4644C161.584 28.4644 160.44 26.8867 160.644 23.2147C160.825 19.9498 163.764 17.8471 166.71 17.9649C170.033 18.0978 163.802 17.9061 162.744 17.9649C160.226 18.1048 159.422 25.2868 161.111 26.1312C162.987 27.0693 164.741 24.5383 166.477 24.7313C167.393 24.833 167.093 32.1512 167.177 32.8975C168.39 43.6781 171.143 53.432 171.143 64.3959C171.143 74.7595 170.562 76.3593 161.694 81.7784C152.661 87.2984 138.342 89.4595 133.812 77.2286C132.036 72.4325 136.482 72.5622 139.878 72.5622C149.466 72.5622 166.1 90.0331 168.11 72.5622C169.222 62.8972 161.006 66.3033 155.511 69.179C155.133 69.3766 148.591 72.5622 152.244 72.5622C155.794 72.5622 159.052 72.0662 161.927 69.9956C165.041 67.7537 168.514 64.408 170.91 61.4794C172.498 59.5387 175.267 60.1145 176.393 57.8629" stroke="#131520" stroke-width="3" stroke-linecap="round"/>
</svg>
